<svg height="24" width="139" xmlns="http://www.w3.org/2000/svg"><g fill="none" fill-rule="evenodd"><path d="M46.024 6.672c2.605 0 4.2 1.624 4.283 3.618h-2.888c-.134-1.162-.712-1.594-1.46-1.594-.996 0-1.544.846-1.544 2.556 0 1.892.564 2.721 1.577 2.721.68 0 1.245-.505 1.41-1.46h2.937c-.33 2.289-2.107 3.484-4.514 3.484-2.54 0-4.464-1.642-4.464-4.563 0-3.054 2.059-4.762 4.663-4.762zm9.82 0c2.961 0 4.447 2.256 4.447 4.547a7.435 7.435 0 0 1-.061.862h-6.167c.15 1.478.796 1.892 1.642 1.892.847 0 1.362-.432 1.478-1.112h2.943c-.505 2.009-2.175 3.136-4.449 3.136-2.538 0-4.562-1.516-4.562-4.629 0-2.59 1.768-4.696 4.73-4.696zm9.317-1.98v2.29h1.958v1.86h-1.958V12.1c0 .298 0 .629.015.861.069.897.35 1.096 1.769 1.03v1.858a9.933 9.933 0 0 1-1.769.149c-2.205 0-2.87-.68-2.97-2.042-.033-.505-.033-.927-.033-1.427V8.842h-1.41v-1.86h1.41v-2.29zm24.811 1.98c2.605 0 4.199 1.624 4.282 3.618h-2.887c-.134-1.162-.715-1.594-1.46-1.594-.996 0-1.544.846-1.544 2.556 0 1.892.563 2.721 1.576 2.721.68 0 1.246-.505 1.41-1.46h2.938c-.33 2.289-2.107 3.484-4.514 3.484-2.54 0-4.464-1.642-4.464-4.563 0-3.054 2.059-4.762 4.663-4.762zm21.077 0c2.903 0 4.765 1.809 4.765 4.664 0 2.837-1.86 4.66-4.765 4.66s-4.762-1.823-4.762-4.66 1.86-4.664 4.762-4.664zm9.643-1.98v2.29h2.994v-2.29h2.986v2.29h1.958v1.86h-1.958l-.005 3.257c0 .298 0 .629.018.861.065.897.348 1.096 1.768 1.03v1.858a9.926 9.926 0 0 1-1.768.149c-2.208 0-2.873-.68-2.971-2.042-.025-.379-.031-.71-.033-1.064V8.842h-2.989V12.1c0 .298 0 .629.018.861.066.897.349 1.096 1.768 1.03v1.858a9.926 9.926 0 0 1-1.768.149c-2.208 0-2.873-.68-2.971-2.042-.025-.379-.03-.71-.032-1.064v-4.05h-1.413v-1.86h1.412v-2.29zm13.162 1.98c2.961 0 4.447 2.256 4.447 4.547 0 .288-.017.576-.05.862h-6.173c.15 1.478.796 1.892 1.642 1.892.847 0 1.362-.432 1.478-1.112h2.938c-.505 2.009-2.175 3.136-4.448 3.136-2.527 0-4.563-1.516-4.563-4.629 0-2.59 1.768-4.696 4.73-4.696zm-55.846.232v4.512c-.003.406.016.812.055 1.216.099.846.505 1.344 1.443 1.344.937 0 1.515-.88 1.515-2.06V6.905h2.99l.004 8.86h-2.988v-1.493l-.796 1.213a3.709 3.709 0 0 1-1.991.505c-1.827 0-2.938-1.028-3.138-2.238a11.79 11.79 0 0 1-.083-1.678v-5.17zm26.635-3.135v8.812c-.01.272 0 .544.032.814.069.512.316.629.98.596v1.841c-.633.067-1.27.1-1.907.099-1.212 0-1.993-.548-2.059-1.726a18.441 18.441 0 0 1-.032-1.304V5.394a3.054 3.054 0 0 0-.996-.117c-1.263 0-1.842.316-1.91.963-.01.155-.013.302-.014.447l-.001.283h1.811v1.872H98.74v6.922h-2.992V8.842h-.778v-1.86h.778v-.065c0-.265 0-.505.018-.798.134-1.66 1.329-2.855 4.896-2.855a13.15 13.15 0 0 1 3.982.505zM73.569 6.672c.23-.003.46.013.687.048v2.44c-2.24-.149-3.054.68-3.054 3.353v3.251H68.21v-8.86h2.986v1.792l.631-1.246a2.428 2.428 0 0 1 1.74-.778zm37.48 2.024c-1.063 0-1.708.864-1.708 2.64s.647 2.637 1.708 2.637 1.71-.88 1.71-2.637c0-1.769-.646-2.64-1.71-2.64zm-55.354 0c-.796 0-1.339.464-1.538 1.56h3.014c-.167-1.045-.68-1.56-1.476-1.56zm78.02 0c-.795 0-1.336.464-1.538 1.56h3.014c-.164-1.045-.68-1.56-1.476-1.56zM30.856 15.807V5.626l-18.517 8.173V23.98z" fill="#ff5a27" fill-rule="nonzero"/><path d="M12.339 13.799V23.98L.063 18.536V8.408z" fill="#a0220d" fill-rule="nonzero"/><path d="M.063 8.408L18.558.225"/><g fill-rule="nonzero"><path d="M15.979 8.56L11.62 6.676l-.073-.028v3.456l.717.311c.758.328 2.196.177 3.219-.336s1.248-1.192.495-1.52z" fill="#a0220d"/><path d="M8.41 7.013c-1.01.505-1.24 1.198-.487 1.516l3.632 1.576V6.65c-.77-.288-2.152-.134-3.145.364z" fill="#ff5a27"/><path d="M23.133 5.379l-4.35-1.883-.07-.027v3.458l.717.31c.758.33 2.193.178 3.216-.335s1.243-1.195.487-1.523z" fill="#a0220d"/><path d="M15.567 3.832c-1.023.506-1.24 1.198-.487 1.516l3.632 1.572V3.469c-.775-.288-2.152-.134-3.145.363z" fill="#ff5a27"/><path d="M18.558.225L.063 8.408l12.276 5.39 18.517-8.182zm-3.067 9.852c-1.01.506-2.463.665-3.218.336l-.718-.308-3.632-1.571c-.758-.326-.534-1.01.487-1.516 1.02-.505 2.375-.652 3.145-.364l.074.028 4.35 1.882c.753.324.533 1.006-.488 1.519zm7.155-3.18c-1.01.505-2.463.664-3.216.336l-.718-.31L15.08 5.35c-.758-.326-.536-1.01.487-1.516 1.023-.505 2.375-.652 3.145-.364l.071.028 4.35 1.882c.756.326.536 1.008-.487 1.52v-.004z" fill="#ffb68d"/></g></g></svg>